<?xml version="1.0" standalone="no"?>
<!DOCTYPE svg PUBLIC "-//W3C//DTD SVG 20010904//EN"
 "http://www.w3.org/TR/2001/REC-SVG-20010904/DTD/svg10.dtd">
<svg version="1.0" xmlns="http://www.w3.org/2000/svg"
 width="375.000000pt" height="666.000000pt" viewBox="0 0 375.000000 666.000000"
 preserveAspectRatio="xMidYMid meet">

<g transform="translate(0.000000,666.000000) scale(0.100000,-0.100000)"
fill="#000000" stroke="none">
<path d="M1812 6388 l-27 -18 25 2 c22 3 25 -1 26 -32 l2 -35 -5 33 c-5 40
-26 38 -34 -4 l-6 -29 -4 28 c-5 38 -22 39 -30 2 l-6 -30 -4 30 -4 30 -27 -27
c-15 -14 -28 -22 -30 -16 -2 6 -24 -6 -48 -25 -25 -20 -75 -57 -112 -82 -94
-64 -100 -87 -94 -344 3 -127 9 -197 17 -207 9 -11 8 -14 -4 -14 -45 0 -54
-93 -15 -163 31 -54 54 -138 45 -161 -7 -18 -8 -19 -92 -37 -33 -7 -72 -18
-87 -26 -16 -7 -28 -10 -28 -7 0 4 -11 -3 -24 -15 -16 -15 -25 -18 -28 -10 -3
9 -11 9 -33 1 -17 -6 -24 -11 -17 -11 19 -1 -7 -27 -28 -29 -62 -3 -95 -23
-95 -57 0 -10 -14 -29 -32 -40 -17 -12 -28 -27 -25 -32 7 -11 122 -22 122 -12
0 3 7 6 15 6 8 0 15 -7 15 -14 0 -8 5 -11 10 -8 6 3 7 18 4 32 -5 19 -4 24 5
18 7 -4 11 -18 8 -31 -2 -13 0 -24 4 -24 5 0 9 5 9 10 0 6 5 10 10 10 6 0 10
-7 10 -15 0 -13 2 -14 14 -3 15 14 2 43 -15 32 -5 -3 -4 7 1 22 6 15 7 31 2
38 -18 23 -22 45 -6 39 7 -3 14 1 14 8 0 7 3 9 6 6 4 -4 1 -13 -6 -22 -18 -22
-8 -27 25 -15 15 6 30 8 33 5 3 -3 0 -5 -7 -5 -20 0 19 -34 43 -37 20 -2 20
-2 -2 11 -22 12 -23 14 -7 29 18 18 30 23 21 8 -8 -12 21 -34 34 -26 5 3 10 2
10 -3 0 -6 7 -12 15 -16 20 -7 19 8 -1 28 -8 9 -12 16 -7 16 4 0 1 4 -7 10 -8
5 -11 13 -6 17 4 4 13 1 19 -8 12 -16 53 -20 73 -7 6 4 11 1 11 -7 0 -8 -7
-15 -14 -15 -8 0 -11 -5 -8 -10 4 -6 10 -8 14 -5 10 5 37 -73 28 -81 -3 -4
-13 1 -22 10 -9 9 -21 16 -26 16 -6 0 2 -11 16 -25 14 -14 25 -31 25 -37 0 -7
5 -6 15 2 17 14 18 6 5 -25 -5 -11 -9 -14 -9 -7 -1 7 -6 10 -11 7 -6 -4 -7
-11 -4 -17 5 -7 -9 -9 -45 -6 -35 3 -51 1 -51 -6 0 -15 -102 -37 -114 -25 -14
13 -53 11 -60 -3 -5 -10 -7 -10 -12 0 -3 6 -10 12 -15 12 -14 0 -11 -28 4 -33
6 -2 -1 -8 -18 -12 -16 -5 -32 -11 -35 -15 -3 -4 -15 -10 -27 -14 -18 -6 -20
-3 -16 12 2 11 0 23 -5 26 -6 3 -8 16 -4 28 4 17 2 20 -11 15 -10 -4 -17 -2
-17 3 0 6 -8 10 -17 10 -15 0 -16 2 -3 10 12 7 10 9 -7 7 -12 0 -19 -5 -16
-10 3 -5 -1 -14 -8 -19 -11 -7 -11 -11 -1 -15 6 -2 9 -10 6 -15 -4 -6 -2 -8 4
-4 13 8 24 -9 28 -45 5 -44 -31 -40 -47 6 -14 36 -35 50 -24 15 4 -11 2 -20
-4 -20 -6 0 -11 -4 -11 -10 0 -5 9 -10 20 -10 27 0 26 -17 -2 -26 -14 -4 -25
-1 -33 10 -17 23 -27 20 -24 -6 2 -13 -2 -33 -9 -45 -9 -17 -9 -22 3 -27 17
-6 18 -76 0 -76 -6 0 -11 -12 -10 -27 0 -21 6 -29 22 -31 12 -2 25 -12 28 -23
4 -11 16 -19 28 -19 19 -1 20 -2 6 -13 -9 -7 -19 -23 -22 -37 -6 -23 -12 -26
-62 -28 -49 -2 -55 0 -55 18 0 11 -4 20 -9 20 -16 0 -5 79 14 100 10 11 14 20
9 20 -8 0 -11 37 -13 161 0 35 -7 54 -30 83 -28 35 -32 66 -9 66 6 0 25 7 44
16 19 9 45 14 59 12 17 -4 25 -1 25 8 0 8 5 14 12 14 6 0 3 7 -8 15 -27 20 0
19 32 -1 13 -9 27 -14 31 -10 3 3 1 6 -6 6 -7 0 -9 5 -5 11 3 6 0 15 -7 20
-11 8 -11 11 5 20 25 15 59 50 53 55 -6 6 -60 -15 -67 -26 -7 -11 -164 -91
-235 -119 -118 -46 -270 -115 -277 -126 -12 -16 -9 -23 10 -28 11 -3 8 -5 -9
-6 -14 0 -30 4 -36 10 -8 8 -16 8 -30 0 -14 -8 -14 -11 -3 -11 8 0 -12 -14
-46 -30 -73 -36 -146 -110 -180 -184 -28 -62 -43 -169 -25 -189 6 -8 8 -17 4
-20 -3 -4 -1 -7 5 -7 7 0 12 -8 12 -17 0 -15 -2 -15 -9 -4 -18 28 -9 -64 11
-123 23 -66 27 -73 87 -173 l43 -73 -41 -46 c-43 -49 -44 -52 -41 -95 1 -29
-24 -53 -114 -107 -90 -55 -86 -34 -86 -427 0 -303 2 -345 15 -345 9 0 43 14
76 30 33 17 93 39 133 49 140 35 251 113 327 231 18 28 37 49 43 47 6 -2 20
-28 31 -58 38 -102 73 -156 176 -268 41 -44 77 -93 80 -108 4 -16 7 -104 8
-198 1 -93 6 -258 12 -365 15 -281 15 -390 0 -525 -22 -199 -68 -457 -92 -515
-20 -48 -23 -77 -28 -240 -6 -250 -7 -587 -1 -593 3 -2 410 -7 905 -11 495 -3
974 -9 1065 -12 l165 -6 65 -38 c36 -21 82 -43 103 -48 35 -10 41 -9 62 12 21
21 23 30 18 82 -2 33 -16 105 -29 162 -18 77 -24 133 -24 215 0 66 -8 157 -20
220 -14 79 -16 115 -9 131 8 16 6 40 -6 86 -20 76 -19 75 -45 325 -11 110 -22
210 -25 222 -3 12 -10 63 -15 115 -6 51 -15 138 -21 193 -6 55 -12 183 -13
285 -3 162 -6 193 -25 250 -23 65 -23 75 -6 218 4 32 50 186 62 205 3 5 20
-18 37 -52 50 -99 216 -288 303 -345 62 -41 98 -32 179 47 34 34 65 73 68 87
8 41 54 231 71 290 31 111 22 147 -83 330 -34 59 -39 89 -19 109 10 10 8 11
-7 5 -14 -5 -17 -3 -14 7 3 8 15 13 27 13 30 -2 119 80 142 131 20 43 25 105
9 105 -5 0 -10 6 -10 14 0 30 -181 136 -232 136 -24 0 -56 16 -87 44 l-24 21
8 -59 c11 -90 10 -89 74 -82 31 4 61 13 67 21 10 13 19 12 67 -10 30 -14 61
-32 67 -40 16 -20 0 -19 -28 1 -13 9 -30 13 -38 10 -9 -3 -22 0 -30 8 -18 19
-54 9 -54 -16 0 -10 -4 -16 -10 -13 -5 3 -10 -1 -10 -10 0 -11 5 -15 15 -11 8
3 20 -3 28 -14 13 -18 39 -22 53 -7 12 12 24 8 24 -8 0 -9 -6 -12 -15 -9 -8 4
-15 1 -15 -5 0 -6 -19 -11 -45 -11 -29 0 -45 -4 -46 -12 0 -7 -2 -24 -4 -38
-1 -14 1 -32 5 -40 6 -11 2 -15 -15 -15 -18 0 -21 3 -13 13 8 9 5 12 -11 12
-11 0 -21 -4 -21 -10 0 -6 -10 -5 -25 2 -14 6 -25 17 -25 25 0 7 -9 13 -20 13
-22 0 -62 38 -54 52 8 12 -6 48 -18 48 -6 0 -17 8 -24 18 -12 16 -13 15 -14
-8 -1 -23 -2 -23 -15 8 -15 35 -30 44 -20 12 9 -28 -4 -25 -45 11 -19 17 -29
28 -22 24 6 -3 12 -2 12 3 0 5 -10 13 -22 17 -20 6 -20 8 -5 12 21 6 23 23 1
23 -8 0 -12 5 -9 10 3 6 1 10 -4 10 -6 0 -11 -4 -11 -10 0 -5 -5 -10 -11 -10
-6 0 -8 7 -5 16 4 12 2 15 -9 10 -10 -4 -25 8 -45 36 -30 41 -38 68 -21 68 12
0 8 27 -6 41 -6 6 -23 12 -37 12 -20 0 -30 11 -56 58 -25 47 -28 59 -16 59 9
0 16 5 16 11 0 5 -4 7 -10 4 -5 -3 -10 -2 -10 4 0 6 -6 8 -14 5 -16 -6 -81 90
-71 106 3 6 11 8 16 5 5 -4 9 -1 9 5 0 6 6 8 13 4 8 -5 9 -4 2 4 -5 6 -19 12
-30 14 -11 1 -24 8 -28 13 -6 6 -10 5 -14 -4 -3 -8 -16 5 -34 35 -15 27 -35
62 -44 78 -9 15 -12 25 -6 22 6 -4 11 0 11 8 0 9 -4 16 -10 16 -5 0 -10 7 -10
15 0 8 -5 15 -11 15 -7 0 -9 9 -6 21 3 12 3 18 0 15 -13 -13 -33 17 -27 40 4
15 2 24 -5 24 -13 0 -54 84 -55 112 -1 10 -19 37 -42 60 -40 42 -62 88 -42 88
5 0 7 4 3 9 -3 6 6 6 24 1 24 -7 29 -5 24 6 -4 10 0 12 13 8 15 -6 14 -2 -5
14 -13 12 -28 19 -33 16 -14 -9 -38 16 -38 40 0 12 -6 30 -13 40 -12 16 -14
16 -26 2 -11 -12 -17 -14 -27 -5 -23 19 -17 41 9 34 l22 -7 -22 21 c-23 21
-39 28 -29 12 3 -5 -1 -11 -9 -14 -9 -4 -12 -1 -8 9 3 9 0 14 -8 12 -8 -2 -14
5 -14 17 0 25 -19 38 -44 30 -22 -7 -71 33 -71 58 0 8 -6 18 -12 20 -10 4 -10
6 0 6 7 1 10 6 7 11 -3 6 0 10 8 10 8 0 18 7 21 16 5 14 4 15 -9 4 -10 -8 -15
-9 -15 -1 0 12 4 13 49 15 18 1 33 -6 40 -16 10 -15 8 -16 -14 -8 -16 6 -25 6
-25 0 0 -6 7 -10 16 -10 14 0 15 -7 10 -39 -5 -34 -3 -41 14 -46 11 -3 24 -3
30 0 5 3 10 2 10 -3 0 -5 9 -12 20 -15 11 -3 18 -1 14 4 -9 14 3 10 21 -7 17
-18 46 -12 41 8 -1 7 -1 10 1 5 3 -4 9 -5 14 -1 16 10 -1 24 -30 24 -29 0 -81
33 -81 51 0 5 20 -2 43 -16 54 -31 57 -31 57 0 0 18 7 28 26 35 22 9 24 14 19
42 -4 18 -6 41 -6 50 0 10 -4 20 -10 23 -18 12 -10 45 11 45 11 0 20 5 20 11
0 6 -7 9 -15 5 -8 -3 -15 -1 -15 5 0 5 6 12 14 15 7 3 19 31 26 64 15 71 1
125 -36 142 -13 6 -25 21 -26 32 0 12 -3 32 -5 46 -2 14 -6 77 -8 140 -6 169
-15 198 -89 274 -41 43 -73 67 -99 74 -20 6 -61 32 -90 58 -73 65 -94 72 -220
71 -86 -1 -113 -5 -135 -19z m124 -48 l2 -35 -5 33 c-5 40 -25 38 -34 -4 -6
-28 -7 -28 -8 7 -1 32 2 36 22 35 18 -1 22 -7 23 -36z m-69 -17 c-3 -10 -5 -2
-5 17 0 19 2 27 5 18 2 -10 2 -26 0 -35z m163 -203 c0 -5 19 -9 43 -8 23 1 61
-2 84 -6 34 -6 44 -5 49 7 3 9 12 13 20 10 8 -3 11 -9 8 -14 -3 -5 0 -9 6 -9
32 0 51 -56 30 -90 -7 -12 -11 -10 -19 10 -9 22 -10 19 -10 -22 -1 -26 4 -50
9 -53 14 -8 2 -46 -18 -61 -9 -6 -24 -9 -34 -6 -10 2 -35 -3 -56 -11 -22 -9
-48 -14 -58 -13 -10 2 -24 -3 -29 -11 -6 -7 -25 -14 -42 -16 -18 -1 -33 -7
-33 -14 0 -16 -18 -26 -32 -17 -7 4 -30 9 -53 10 -22 1 -71 9 -108 18 -38 9
-73 14 -77 11 -13 -8 -90 6 -90 16 0 5 6 6 14 3 7 -3 20 1 27 8 8 8 22 17 32
21 13 5 17 16 15 42 -2 29 -6 35 -23 33 -16 -2 -21 3 -23 28 -2 22 2 33 13 38
9 3 14 2 11 -2 -3 -5 11 -9 30 -9 37 -1 147 49 197 89 21 17 30 20 36 10 6
-10 14 -9 37 3 34 17 44 19 44 5z m-230 -70 c0 -5 -5 -10 -11 -10 -5 0 -7 5
-4 10 3 6 8 10 11 10 2 0 4 -4 4 -10z m-160 -70 c0 -11 -4 -20 -10 -20 -5 0
-10 9 -10 20 0 11 5 20 10 20 6 0 10 -9 10 -20z m635 0 c3 -5 1 -10 -4 -10 -6
0 -11 5 -11 10 0 6 2 10 4 10 3 0 8 -4 11 -10z m-590 -50 c3 -5 2 -10 -4 -10
-5 0 -13 5 -16 10 -3 6 -2 10 4 10 5 0 13 -4 16 -10z m263 -197 c3 -17 -1 -20
-16 -16 -11 3 -22 14 -25 25 -4 15 -1 19 16 16 14 -2 23 -11 25 -25z m477 -3
c-3 -5 -11 -10 -16 -10 -6 0 -7 5 -4 10 3 6 11 10 16 10 6 0 7 -4 4 -10z
m-461 -105 c13 -25 27 -58 30 -73 3 -15 8 -39 12 -53 6 -26 4 -27 -46 -34 -40
-6 -55 -4 -69 9 -19 17 -17 42 8 128 7 20 11 40 10 45 -7 41 27 27 55 -22z
m104 -133 c2 -7 -5 -12 -15 -11 -12 0 -14 2 -4 6 11 5 11 7 0 15 -12 8 -12 9
0 6 8 -3 17 -10 19 -16z m-108 -232 c0 -5 -10 -10 -22 -9 -22 0 -22 1 -3 9 11
5 21 9 23 9 1 1 2 -3 2 -9z m50 0 c-19 -13 -30 -13 -30 0 0 6 10 10 23 10 18
0 19 -2 7 -10z m-3 -35 c2 -6 -13 -12 -32 -13 -26 -2 -35 1 -35 13 0 12 8 15
32 13 17 -2 33 -8 35 -13z m-874 -62 c-7 -2 -19 -2 -25 0 -7 3 -2 5 12 5 14 0
19 -2 13 -5z m217 -17 c0 -3 -4 -8 -10 -11 -5 -3 -10 -1 -10 4 0 6 5 11 10 11
6 0 10 -2 10 -4z m800 -26 c0 -16 -7 -20 -33 -20 -23 0 -40 -8 -55 -25 -12
-14 -29 -25 -37 -25 -8 0 -15 -7 -15 -16 0 -11 -5 -14 -16 -10 -9 3 -20 6 -25
6 -20 0 -7 20 17 26 19 5 22 9 12 15 -10 7 -10 9 2 10 8 1 19 1 24 0 4 -1 13
5 20 13 9 13 71 41 99 45 4 0 7 -8 7 -19z m-1020 -5 c0 -2 -9 -9 -20 -15 -22
-12 -44 -5 -35 11 6 9 55 13 55 4z m-67 -38 c4 3 7 2 7 -4 0 -6 -11 -10 -25
-9 -25 1 -31 7 -18 19 3 4 11 2 18 -3 7 -5 15 -7 18 -3z m1101 -45 c-7 -4 -14
-16 -17 -27 -2 -11 -5 0 -6 25 -1 42 0 43 17 27 12 -12 14 -20 6 -25z m-351
-2 c3 -11 1 -20 -4 -20 -5 0 -9 9 -9 20 0 11 2 20 4 20 2 0 6 -9 9 -20z m57
-15 c0 -2 -10 -10 -22 -16 -21 -11 -22 -11 -9 4 13 16 31 23 31 12z m-1110
-85 c0 -5 -5 -10 -11 -10 -5 0 -7 5 -4 10 3 6 8 10 11 10 2 0 4 -4 4 -10z
m290 -20 c0 -5 -5 -10 -11 -10 -5 0 -7 5 -4 10 3 6 8 10 11 10 2 0 4 -4 4 -10z
m-326 -15 c-7 -18 0 -19 25 -3 10 6 25 9 34 5 20 -8 27 -81 8 -104 -13 -17
-13 -17 -8 0 4 9 2 17 -3 17 -14 0 -12 -24 2 -38 9 -9 9 -15 1 -23 -8 -8 -16
-6 -29 10 -23 26 -34 27 -34 1 0 -11 5 -20 10 -20 6 0 10 -9 10 -20 0 -13 7
-20 20 -20 11 0 20 -6 20 -12 -1 -24 -25 -45 -48 -41 -17 2 -21 -1 -16 -9 5
-9 2 -9 -9 1 -15 12 -18 10 -28 -19 -7 -17 -14 -28 -18 -23 -3 6 -16 12 -28
15 -15 4 -23 0 -26 -13 -3 -11 -1 -22 4 -25 5 -3 9 3 10 13 0 14 2 13 10 -5 5
-13 14 -20 20 -17 15 10 49 -24 49 -48 0 -11 -3 -17 -7 -13 -5 4 -8 13 -8 19
0 5 -5 12 -12 14 -15 5 -8 -38 12 -78 18 -33 19 -59 4 -59 -6 0 -9 9 -6 20 3
11 0 23 -5 27 -6 3 -9 2 -6 -3 3 -5 0 -15 -8 -22 -11 -10 -15 -8 -24 8 -6 11
-16 20 -23 20 -7 0 -6 -4 3 -10 14 -9 7 -14 -13 -11 -5 1 -7 -4 -4 -11 2 -7 9
-12 14 -11 6 1 9 -9 7 -23 -1 -13 2 -22 7 -18 5 3 9 -1 9 -8 0 -9 3 -9 8 -2 4
6 19 13 34 16 22 4 27 1 31 -19 5 -27 6 -26 -27 -13 -17 6 -26 6 -26 0 0 -6
-10 -10 -21 -10 -19 0 -17 -3 11 -22 29 -20 42 -46 21 -42 -3 1 -22 4 -41 7
-34 5 -34 5 -7 -6 15 -6 27 -15 27 -19 0 -5 -14 -2 -30 7 -31 16 -31 15 -16
93 3 12 1 22 -5 22 -5 0 -9 6 -9 14 0 8 -5 18 -11 22 -7 4 -9 -1 -5 -15 3 -11
9 -31 12 -42 4 -14 2 -19 -5 -15 -6 4 -11 19 -11 33 0 18 -4 24 -15 20 -10 -4
-17 5 -25 31 -7 25 -7 38 1 40 6 3 6 8 1 15 -14 17 5 60 22 54 41 -16 13 40
-54 110 -27 27 -10 39 18 13 15 -14 23 -16 28 -8 4 6 -2 18 -12 26 -19 14 -18
14 1 8 11 -3 27 -1 35 5 13 9 12 10 -2 5 -10 -3 -20 -1 -23 4 -4 6 6 10 21 10
l27 0 -29 23 c-16 12 -31 21 -35 20 -3 -1 -6 4 -6 12 0 8 5 11 10 8 5 -3 45
-6 88 -7 59 -1 80 3 84 13 4 11 3 12 -10 1 -9 -7 -15 -8 -15 -2 0 6 -14 13
-30 17 -17 4 -28 11 -24 16 3 5 10 7 15 3 5 -3 17 0 25 7 11 9 12 14 3 19 -18
12 -2 29 21 23 11 -3 20 0 20 6 0 5 -6 8 -14 5 -8 -3 -17 0 -21 6 -3 6 -3 10
2 9 21 -4 33 2 33 16 0 8 4 15 10 15 5 0 7 -7 4 -15z m910 -94 c26 -29 12 -47
-36 -45 -23 1 -44 6 -46 12 -4 12 -62 -16 -75 -36 -19 -30 -53 -52 -79 -52
-18 0 -28 -5 -28 -15 0 -13 -6 -12 -38 4 l-38 19 -23 -33 c-14 -21 -28 -32
-37 -28 -8 3 -14 1 -14 -5 0 -5 -12 -13 -26 -16 -31 -8 -56 -30 -46 -41 4 -5
0 -6 -9 -2 -9 3 -25 0 -36 -8 -28 -20 -68 -23 -68 -5 0 8 -6 18 -14 21 -17 6
57 51 116 69 21 7 55 23 75 36 21 13 40 24 43 24 3 0 19 10 36 22 16 12 76 39
132 59 117 43 185 49 211 20z m876 -56 c0 -5 -5 -3 -10 5 -5 8 -10 20 -10 25
0 6 5 3 10 -5 5 -8 10 -19 10 -25z m-2047 -116 c4 -16 3 -18 -9 -8 -16 13 -19
29 -5 29 5 0 11 -9 14 -21z m-83 1 c0 -5 -7 -7 -15 -4 -8 4 -15 8 -15 10 0 2
7 4 15 4 8 0 15 -4 15 -10z m1328 -15 c-3 -3 -9 2 -12 12 -6 14 -5 15 5 6 7
-7 10 -15 7 -18z m-1348 -5 c0 -5 -2 -10 -4 -10 -3 0 -8 5 -11 10 -3 6 -1 10
4 10 6 0 11 -4 11 -10z m356 -2 c-4 6 -2 12 3 12 15 0 13 -11 -4 -34 -17 -22
-35 -13 -28 14 5 17 8 18 21 8 12 -10 14 -10 8 0z m1043 -15 c2 -2 -3 -3 -11
-3 -9 0 -19 7 -22 16 -6 15 -4 15 11 3 10 -7 20 -15 22 -16z m595 -41 c-25
-38 -34 -49 -83 -101 -23 -25 -57 -65 -74 -88 -17 -24 -34 -43 -39 -43 -4 0
-7 -3 -6 -7 2 -11 -35 -73 -44 -73 -4 0 -15 15 -24 33 -9 17 -33 52 -54 77
-20 25 -49 64 -64 87 -15 25 -36 45 -51 49 -13 3 -30 13 -37 22 -10 14 -10 15
1 6 14 -13 51 -7 51 8 0 5 -6 6 -12 2 -8 -5 -8 -1 1 10 12 15 26 17 82 13 45
-3 70 -1 73 7 2 6 5 4 5 -5 1 -9 -6 -20 -15 -23 -8 -3 -12 -10 -9 -16 4 -6 -5
-10 -19 -10 -30 0 -32 -8 -12 -36 12 -16 18 -17 34 -7 17 10 21 9 26 -10 11
-40 8 -51 -9 -37 -13 11 -14 10 -9 -5 5 -13 4 -16 -4 -11 -17 10 -15 0 4 -18
9 -9 21 -13 27 -9 7 5 21 8 32 8 12 0 21 8 23 20 4 20 56 75 72 75 16 0 110
97 110 113 0 10 5 14 15 11 10 -4 15 0 16 12 1 14 3 13 6 -4 3 -13 -3 -35 -13
-50z m-1864 38 c0 -5 -2 -10 -4 -10 -3 0 -8 5 -11 10 -3 6 -1 10 4 10 6 0 11
-4 11 -10z m-16 -26 c6 -15 -11 -18 -38 -8 -20 8 -13 19 12 21 11 1 23 -5 26
-13z m1646 -9 c0 -8 -7 -15 -15 -15 -26 0 -18 20 13 29 1 1 2 -6 2 -14z
m-1872 -31 c17 -15 29 -30 26 -35 -5 -9 -74 20 -86 36 -25 34 18 33 60 -1z
m189 14 c10 -16 10 -68 1 -68 -5 0 -8 4 -8 9 0 5 -3 17 -7 27 -4 12 -3 15 5
10 19 -11 14 5 -5 20 -10 7 -13 14 -6 14 6 0 15 -6 20 -12z m-109 -14 c12 -8
22 -22 22 -30 0 -8 4 -14 9 -14 6 0 9 -9 8 -20 -1 -19 -2 -19 -23 2 -12 13
-20 26 -18 29 2 3 -6 16 -17 27 -23 26 -13 29 19 6z m894 -52 c40 -39 -21
-103 -72 -76 -14 8 -33 14 -42 14 -13 0 -18 8 -18 27 0 42 28 64 75 58 22 -3
48 -14 57 -23z m-941 -39 c-5 -11 -13 -44 -17 -74 -4 -32 -15 -63 -26 -76 -16
-17 -18 -25 -9 -42 7 -12 9 -21 5 -21 -3 0 -1 -7 6 -15 8 -10 9 -15 1 -15 -6
0 -17 13 -25 28 -14 27 -13 31 10 63 21 31 23 39 13 66 -11 33 -3 59 29 96 19
21 27 15 13 -10z m111 -17 c6 4 8 2 4 -4 -3 -6 3 -14 15 -17 16 -5 18 -10 9
-18 -9 -9 -16 -6 -31 12 -10 13 -19 28 -18 35 0 7 2 6 6 -2 2 -6 10 -9 15 -6z
m8 -61 c0 -8 7 -15 16 -15 8 0 12 -4 9 -10 -3 -5 -1 -10 5 -10 6 0 8 -5 5 -10
-4 -7 5 -9 27 -5 22 4 28 2 19 -4 -11 -7 -12 -13 -3 -23 7 -9 8 -19 2 -28 -15
-24 -12 -30 20 -41 26 -9 28 -13 17 -30 -6 -10 -21 -19 -32 -18 -20 0 -20 0 0
9 l20 9 -20 1 c-17 2 -16 3 5 9 22 7 18 9 -25 16 -43 7 -46 10 -25 16 21 6 22
7 5 9 -17 2 -16 3 5 10 25 8 25 8 -5 10 l-30 3 35 7 35 7 -30 2 c-26 2 -27 4
-10 11 15 7 16 9 4 9 -9 1 -22 -6 -29 -14 -7 -8 -18 -15 -24 -15 -6 0 -4 5 4
10 8 5 10 10 4 10 -6 0 -10 14 -9 30 1 17 -2 30 -7 30 -5 0 -7 4 -4 9 4 5 0
12 -6 14 -8 3 -6 6 5 6 9 1 17 -6 17 -14z m927 -7 c-2 -7 -12 -13 -22 -13 -10
0 -21 -7 -23 -15 -3 -8 -16 -26 -29 -40 l-24 -25 -24 29 c-19 24 -21 32 -10
42 27 27 141 46 132 22z m-783 -33 c3 -8 1 -15 -4 -15 -6 0 -10 7 -10 15 0 8
2 15 4 15 2 0 6 -7 10 -15z m156 5 c13 -8 13 -10 -2 -10 -9 0 -20 5 -23 10 -8
13 5 13 25 0z m2110 -40 c9 -16 8 -20 -5 -20 -8 0 -15 9 -15 20 0 11 2 20 5
20 2 0 9 -9 15 -20z m-2178 -58 c9 -9 1 -12 -36 -12 -29 0 -45 -4 -41 -10 3
-5 2 -10 -3 -10 -6 0 -13 7 -16 16 -3 8 -2 13 3 10 5 -3 13 0 19 7 13 16 58
15 74 -1z m668 -57 c0 -16 -25 -26 -45 -19 -23 9 -18 32 8 36 27 5 37 1 37
-17z m-805 -25 c-3 -5 -12 -7 -20 -3 -21 7 -19 13 6 13 11 0 18 -4 14 -10z
m-28 -16 c-3 -3 -12 -4 -19 -1 -8 3 -5 6 6 6 11 1 17 -2 13 -5z m2323 -24 c0
-5 -2 -10 -4 -10 -3 0 -8 5 -11 10 -3 6 -1 10 4 10 6 0 11 -4 11 -10z m187 -6
c-3 -3 -12 -4 -19 -1 -8 3 -5 6 6 6 11 1 17 -2 13 -5z m-300 -11 c-4 -3 -2
-12 4 -19 8 -9 5 -11 -10 -7 -12 3 -18 9 -15 14 3 5 -1 6 -9 3 -8 -3 -18 -1
-22 5 -4 7 6 11 26 11 18 0 29 -3 26 -7z m918 -356 c1 -7 7 -11 15 -9 8 2 3
-10 -12 -30 -14 -18 -33 -34 -42 -34 -12 -2 -12 -1 -2 3 8 2 18 13 21 24 4 10
11 19 16 19 6 0 3 7 -5 16 -9 8 -13 20 -10 25 7 12 19 3 19 -14z m-88 -81 c0
-8 -6 -12 -14 -9 -7 3 -10 9 -7 14 8 14 21 11 21 -5z m-2569 -116 c-9 -13 -16
-16 -23 -9 -7 7 -5 13 5 19 24 15 31 11 18 -10z m84 0 c18 0 18 -1 4 -16 -9
-8 -16 -20 -16 -25 0 -6 -5 -7 -10 -4 -8 5 -7 11 1 21 9 11 8 15 -5 20 -9 3
-13 11 -9 17 5 8 8 7 11 -1 2 -7 13 -12 24 -12z m42 -46 c4 -15 5 -29 1 -32
-3 -3 -5 0 -5 6 0 7 -7 12 -15 12 -8 0 -15 -4 -15 -10 0 -5 -9 -10 -20 -10
l-21 0 21 22 c11 12 20 25 20 30 0 20 29 5 34 -18z m-87 -30 c-3 -3 -12 -4
-19 -1 -8 3 -5 6 6 6 11 1 17 -2 13 -5z m24 -50 c22 -25 22 -26 3 -16 -12 6
-24 18 -28 27 -8 21 -3 19 25 -11z m93 10 c9 -3 16 -10 16 -14 0 -11 -49 -19
-56 -9 -3 5 2 9 11 9 9 0 13 5 10 10 -7 12 -3 12 19 4z m-34 -49 c8 0 25 6 36
12 18 11 24 9 45 -15 13 -14 17 -21 9 -15 -17 13 -180 -4 -180 -19 0 -4 -6 -8
-13 -8 -15 0 -67 -47 -67 -60 0 -6 -4 -10 -10 -10 -20 0 7 40 50 74 27 21 56
36 73 36 19 0 27 5 28 18 0 14 2 14 7 2 4 -9 14 -15 22 -15z m-319 6 c-12 -8
-51 -4 -51 5 0 2 15 4 33 4 22 0 28 -3 18 -9z m469 -112 c-8 -20 -10 -21 -9
-4 3 51 -9 60 -27 21 -9 -18 -9 -28 0 -37 8 -9 8 -10 -1 -5 -8 4 -13 2 -14 -6
0 -10 -2 -10 -6 0 -6 16 -42 15 -76 -3 -36 -18 -99 -36 -92 -25 3 4 17 11 32
15 28 6 152 85 151 95 -2 21 5 21 27 -1 22 -21 24 -29 15 -50z m-447 24 c-9
-57 -22 -76 -23 -31 0 41 8 68 20 68 5 0 6 -17 3 -37z m494 -39 c-3 -3 -12 -4
-19 -1 -8 3 -5 6 6 6 11 1 17 -2 13 -5z m-23 -29 c3 -9 0 -15 -9 -15 -9 0 -12
6 -9 15 4 8 7 15 9 15 2 0 5 -7 9 -15z m51 5 c3 -5 1 -10 -4 -10 -6 0 -11 5
-11 10 0 6 2 10 4 10 3 0 8 -4 11 -10z m-88 -42 c-3 -8 -6 -5 -6 6 -1 11 2 17
5 13 3 -3 4 -12 1 -19z m63 2 c0 -5 -2 -10 -4 -10 -3 0 -8 5 -11 10 -3 6 -1
10 4 10 6 0 11 -4 11 -10z m-421 -55 c9 -5 12 -4 8 2 -9 14 47 21 113 14 54
-6 55 -7 80 -56 26 -53 32 -137 11 -172 -12 -20 -15 -9 -11 36 3 43 -23 152
-39 160 -18 8 -99 7 -151 -3 -32 -7 -37 -4 -52 23 -11 21 -25 31 -40 31 -18 0
-20 2 -8 10 10 6 23 2 45 -14 16 -12 36 -26 44 -31z m397 29 c1 -9 0 -13 -4
-10 -3 4 -7 14 -8 22 -1 9 0 13 4 10 3 -4 7 -14 8 -22z m135 -45 c18 -20 25
-37 21 -51 -4 -17 -2 -19 18 -13 16 5 21 4 18 -6 -4 -10 -23 -13 -72 -11 -54
2 -66 0 -66 -13 0 -8 -7 -15 -17 -15 -9 0 -13 -3 -10 -7 4 -3 -2 -12 -13 -20
-11 -8 -20 -21 -20 -29 0 -8 -6 -14 -14 -14 -11 0 -10 10 7 53 17 43 25 52 46
54 14 0 27 6 29 11 2 6 20 8 42 5 31 -4 40 -2 40 9 0 19 -54 58 -79 58 -14 0
-19 5 -14 16 9 23 52 9 84 -27z m-2 -168 c0 -10 -2 -11 -6 -3 -2 6 -11 12 -19
12 -9 0 -13 4 -9 10 9 14 35 0 34 -19z m146 8 c0 -8 3 -19 7 -24 3 -6 1 -21
-6 -34 -14 -25 -33 -13 -22 14 3 8 1 15 -4 15 -6 0 -10 -4 -10 -9 0 -5 -14
-12 -31 -16 -17 -4 -33 -13 -36 -21 -3 -8 -16 -14 -29 -14 -15 0 -24 -6 -24
-15 0 -8 -5 -15 -11 -15 -5 0 -7 5 -4 10 3 6 -4 10 -17 10 -18 0 -14 4 17 20
22 11 47 20 57 20 9 0 23 8 30 18 7 10 25 22 40 25 20 5 26 12 21 23 -4 12 -2
15 8 12 8 -3 14 -11 14 -19z m-174 -32 c-10 -9 -11 -8 -5 6 3 10 9 15 12 12 3
-3 0 -11 -7 -18z m229 -41 c0 -6 -7 -2 -15 8 -8 11 -15 25 -15 30 0 6 7 2 15
-8 8 -11 15 -25 15 -30z m-435 -16 c-3 -6 1 -7 10 -4 8 4 22 1 30 -6 8 -7 15
-9 15 -5 0 4 6 3 13 -3 6 -6 38 -15 70 -21 32 -6 67 -17 78 -25 11 -7 29 -11
40 -9 11 3 19 2 18 -3 -4 -21 2 -35 11 -29 6 3 10 -5 10 -19 0 -14 5 -28 10
-31 15 -9 12 -27 -2 -20 -7 4 -5 0 4 -8 11 -9 15 -21 11 -37 -5 -17 -3 -21 6
-15 9 5 8 -3 -3 -22 -9 -18 -11 -34 -6 -39 5 -5 1 -19 -10 -34 l-20 -25 0 75
c-1 41 -7 97 -14 124 -11 41 -18 52 -42 59 -16 5 -36 11 -44 14 -31 12 -46 15
-87 14 -33 0 -44 4 -58 25 -9 14 -19 23 -22 20 -9 -9 -44 14 -38 25 4 5 11 9
16 9 6 0 7 -4 4 -10z m465 -15 c22 -19 55 -75 46 -75 -16 0 -56 25 -55 34 3
25 -2 37 -13 30 -7 -5 -8 -3 -3 6 6 10 2 12 -18 8 -15 -3 -28 0 -30 6 -8 20
50 12 73 -9z m-210 -30 c0 -8 -4 -15 -10 -15 -5 0 -7 7 -4 15 4 8 8 15 10 15
2 0 4 -7 4 -15z m70 -5 c0 -5 -2 -10 -4 -10 -3 0 -8 5 -11 10 -3 6 -1 10 4 10
6 0 11 -4 11 -10z m100 -40 c0 -5 -2 -10 -4 -10 -3 0 -8 5 -11 10 -3 6 -1 10
4 10 6 0 11 -4 11 -10z m-33 -6 c-3 -3 -12 -4 -19 -1 -8 3 -5 6 6 6 11 1 17
-2 13 -5z m68 -4 c3 -6 -1 -7 -9 -4 -18 7 -21 14 -7 14 6 0 13 -4 16 -10z
m-65 -30 c0 -5 -2 -10 -4 -10 -3 0 -8 5 -11 10 -3 6 -1 10 4 10 6 0 11 -4 11
-10z m103 -15 c-3 -9 -8 -14 -10 -11 -3 3 -2 9 2 15 9 16 15 13 8 -4z m77 -45
c6 -11 8 -25 5 -30 -3 -6 2 -10 12 -10 14 0 15 -2 4 -9 -8 -5 -20 -7 -28 -4
-18 7 -17 -12 2 -27 10 -9 15 -9 15 -1 0 6 10 11 23 10 12 0 16 -3 10 -6 -7
-2 -13 -16 -13 -30 0 -20 -4 -24 -17 -18 -10 4 -26 10 -35 12 -20 6 -23 19 -8
28 6 4 8 11 5 16 -4 5 -2 17 4 26 7 14 5 23 -11 41 l-21 22 21 0 c12 0 26 -9
32 -20z m-96 -66 c9 -23 8 -24 -11 -23 -12 0 -13 2 -5 6 10 4 10 8 1 19 -7 8
-7 14 -1 14 5 0 13 -7 16 -16z m36 6 c0 -5 -2 -10 -4 -10 -3 0 -8 5 -11 10 -3
6 -1 10 4 10 6 0 11 -4 11 -10z m-120 -50 c0 -5 -5 -10 -11 -10 -5 0 -7 5 -4
10 3 6 8 10 11 10 2 0 4 -4 4 -10z m123 3 c-7 -2 -19 -2 -25 0 -7 3 -2 5 12 5
14 0 19 -2 13 -5z m-18 -25 c-6 -30 -28 -78 -34 -78 -11 0 -6 30 9 63 13 27
31 37 25 15z m-82 -5 c-7 -2 -19 -2 -25 0 -7 3 -2 5 12 5 14 0 19 -2 13 -5z
m-33 -69 c8 -7 34 -20 58 -29 23 -10 42 -21 42 -26 0 -5 5 -9 11 -9 6 0 17 -7
25 -15 15 -14 58 -21 116 -17 15 1 30 -3 33 -8 3 -6 -1 -10 -9 -10 -9 0 -16
-5 -16 -11 0 -8 -4 -9 -13 0 -8 6 -16 8 -19 6 -3 -3 -17 -1 -32 4 l-26 10 2
-68 c1 -42 -2 -74 -10 -83 -6 -8 -9 -18 -5 -22 4 -4 -6 -18 -21 -33 l-28 -26
7 24 c3 13 13 39 21 57 22 47 15 142 -11 156 -11 6 -32 19 -47 29 -14 9 -35
17 -46 17 -33 0 -53 11 -63 36 -5 14 -17 24 -29 24 -11 0 -20 4 -20 10 0 13
61 1 80 -16z m297 -26 c-3 -7 -5 -2 -5 12 0 14 2 19 5 13 2 -7 2 -19 0 -25z
m16 -118 c-3 -12 -8 -19 -11 -16 -5 6 5 36 12 36 2 0 2 -9 -1 -20z m41 -29 c3
-5 -1 -11 -9 -15 -15 -6 -29 7 -18 18 9 9 21 8 27 -3z m30 -133 c4 -18 2 -28
-4 -28 -6 0 -8 5 -5 10 3 6 2 10 -3 10 -6 0 -8 9 -5 20 7 25 8 23 17 -12z
m-24 -28 c0 -5 -2 -10 -4 -10 -3 0 -8 5 -11 10 -3 6 -1 10 4 10 6 0 11 -4 11
-10z m-180 -49 c14 -8 41 -31 61 -52 36 -36 37 -37 60 -21 23 15 22 14 -3 -20
-16 -20 -28 -45 -28 -56 0 -25 -60 -114 -80 -120 -9 -2 -11 0 -5 5 14 11 75
133 75 149 0 16 -64 84 -78 84 -5 0 -15 7 -22 15 -7 8 -22 15 -34 15 -16 0
-18 2 -7 9 17 11 28 9 61 -8z m201 -61 c10 -6 19 -15 19 -20 0 -16 -26 -11
-51 10 -21 17 -22 19 -6 20 10 0 27 -5 38 -10z m16 -159 c11 -17 8 -19 -20
-24 -18 -2 -35 0 -38 6 -4 5 -11 7 -17 3 -6 -3 -13 -2 -17 4 -3 6 4 10 17 10
13 0 30 5 38 10 21 13 24 13 37 -9z m-24 -96 c-3 -9 -8 -14 -10 -11 -3 3 -2 9
2 15 9 16 15 13 8 -4z m-145 -4 c9 -5 31 -15 49 -21 17 -6 41 -22 54 -36 19
-21 20 -24 5 -30 -9 -3 -16 -11 -16 -18 0 -6 -16 -28 -35 -49 -19 -21 -35 -39
-35 -41 0 -2 10 -3 23 -3 27 0 80 -14 73 -20 -2 -2 9 -18 25 -34 16 -16 29
-35 29 -41 0 -9 -3 -9 -12 0 -8 8 -15 3 -29 -21 l-17 -32 36 -36 c50 -50 58
-60 70 -100 19 -63 23 -91 12 -84 -5 3 -10 19 -10 36 0 16 -4 29 -9 29 -17 0
-19 -54 -3 -87 8 -18 13 -35 10 -38 -2 -3 -27 2 -55 10 -53 16 -64 37 -30 57
10 5 15 13 12 19 -4 5 0 9 8 9 21 0 41 74 26 98 -14 23 -63 42 -107 42 -41 0
-40 13 3 51 74 65 52 119 -47 119 -38 0 -57 4 -53 10 4 6 10 8 15 5 5 -3 12 0
16 6 4 8 3 9 -4 5 -28 -17 -8 15 33 55 25 24 45 51 45 60 0 14 -53 49 -75 49
-8 0 -35 26 -35 34 0 8 8 7 28 -3z m138 -198 c-10 -10 -19 5 -10 18 6 11 8 11
12 0 2 -7 1 -15 -2 -18z m108 -563 c-10 -27 -22 -46 -26 -43 -5 3 -12 -4 -15
-15 -3 -11 -11 -18 -17 -16 -15 6 -17 36 -2 31 25 -8 65 60 67 116 2 31 2 31
6 4 3 -16 -3 -50 -13 -77z m-14 -70 c0 -5 -5 -10 -11 -10 -5 0 -7 5 -4 10 3 6
8 10 11 10 2 0 4 -4 4 -10z"/>
<path d="M2166 6081 c-4 -5 3 -7 14 -4 23 6 26 13 6 13 -8 0 -17 -4 -20 -9z"/>
<path d="M2231 6064 c0 -11 3 -14 6 -6 3 7 2 16 -1 19 -3 4 -6 -2 -5 -13z"/>
<path d="M2261 6044 c0 -11 3 -14 6 -6 3 7 2 16 -1 19 -3 4 -6 -2 -5 -13z"/>
<path d="M708 4803 c6 -2 18 -2 25 0 6 3 1 5 -13 5 -14 0 -19 -2 -12 -5z"/>
<path d="M575 4730 c-3 -5 1 -10 9 -10 9 0 16 5 16 10 0 6 -4 10 -9 10 -6 0
-13 -4 -16 -10z"/>
<path d="M658 4690 c-15 -17 -15 -18 8 -23 20 -3 24 0 24 19 0 28 -9 29 -32 4z"/>
<path d="M712 4691 c-10 -6 -9 -11 4 -22 10 -8 15 -9 11 -2 -4 6 -2 13 5 15 7
3 8 7 2 11 -5 3 -16 2 -22 -2z"/>
<path d="M604 4545 c22 -17 36 -19 36 -6 0 10 -24 21 -43 21 -7 0 -3 -7 7 -15z"/>
<path d="M630 4510 c0 -5 5 -10 11 -10 5 0 7 5 4 10 -3 6 -8 10 -11 10 -2 0
-4 -4 -4 -10z"/>
<path d="M562 4469 c-12 -19 -11 -20 9 -17 12 2 23 11 25 21 3 24 -18 22 -34
-4z"/>
<path d="M615 4470 c3 -5 11 -10 16 -10 6 0 7 5 4 10 -3 6 -11 10 -16 10 -6 0
-7 -4 -4 -10z"/>
<path d="M655 4470 c3 -5 8 -10 11 -10 2 0 4 5 4 10 0 6 -5 10 -11 10 -5 0 -7
-4 -4 -10z"/>
<path d="M605 4300 c3 -5 11 -10 16 -10 6 0 7 5 4 10 -3 6 -11 10 -16 10 -6 0
-7 -4 -4 -10z"/>
<path d="M1158 4623 c7 -3 16 -2 19 1 4 3 -2 6 -13 5 -11 0 -14 -3 -6 -6z"/>
<path d="M1890 1860 c0 -5 5 -10 11 -10 5 0 7 5 4 10 -3 6 -8 10 -11 10 -2 0
-4 -4 -4 -10z"/>
<path d="M2450 5196 c0 -2 8 -24 19 -48 23 -55 76 -112 96 -104 20 7 19 55 -1
84 -8 12 -11 22 -6 22 12 0 32 -46 32 -74 0 -13 -7 -29 -15 -36 -9 -7 -13 -15
-11 -17 3 -3 0 -16 -5 -30 -5 -14 -11 -42 -14 -62 -3 -29 -2 -33 7 -17 10 17
12 17 34 -9 18 -21 24 -24 24 -12 0 10 -6 17 -12 17 -9 0 -8 3 2 10 16 10 11
13 -35 23 -18 4 -18 5 2 6 12 0 23 9 26 19 2 12 8 8 20 -18 9 -19 18 -47 21
-61 5 -22 10 -26 33 -21 23 4 26 2 16 -9 -7 -7 -13 -21 -13 -32 0 -10 -5 -15
-10 -12 -6 4 -27 8 -48 10 l-36 3 24 -18 c13 -10 27 -17 31 -14 4 2 9 -3 12
-11 4 -10 1 -12 -11 -8 -15 6 -14 3 2 -15 26 -30 34 -28 38 11 l4 32 15 -33
c9 -18 18 -29 22 -25 4 3 7 -8 7 -25 0 -40 9 -62 26 -62 8 0 14 -4 14 -10 0
-5 10 -11 23 -11 17 -1 18 -2 4 -6 -16 -4 -15 -8 8 -35 14 -16 25 -37 25 -47
0 -21 35 -61 55 -62 8 -1 20 -2 27 -3 7 0 19 -20 28 -43 18 -48 30 -64 30 -38
0 14 3 15 15 5 9 -8 12 -17 7 -24 -14 -17 -22 -86 -11 -86 6 0 8 -4 5 -9 -3
-5 17 -11 44 -15 37 -5 48 -10 44 -21 -4 -8 1 -17 9 -21 8 -3 14 -13 12 -22
-4 -28 6 -34 26 -16 11 9 21 15 24 13 2 -3 0 -30 -4 -62 -5 -34 -4 -60 1 -64
6 -3 39 -6 74 -8 36 -1 67 -5 71 -9 13 -13 23 -5 23 19 0 14 -6 25 -12 25 -7
0 -26 13 -43 29 -16 16 -43 41 -59 56 -21 20 -26 29 -17 38 13 13 15 47 2 47
-5 0 -11 -10 -13 -22 -2 -19 -8 -22 -33 -20 -16 2 -32 8 -33 13 -2 5 -21 33
-42 61 -35 45 -45 78 -20 63 8 -5 1 29 -15 67 -7 18 23 33 53 24 9 -3 32 -8
51 -11 18 -3 46 -12 62 -20 27 -15 78 -21 66 -9 -8 8 19 62 47 92 18 21 21 34
19 113 0 54 -6 95 -13 104 -7 8 -10 15 -6 15 11 0 -33 78 -65 115 -34 38 -52
45 -43 18 3 -10 -2 -6 -12 8 -18 28 -69 45 -159 55 -27 3 -60 7 -72 9 -12 3
-29 2 -38 -1 -13 -6 -14 -9 -3 -16 9 -7 8 -8 -5 -4 -10 3 -26 6 -35 6 -14 0
-15 2 -2 9 8 6 17 8 21 5 4 -2 10 0 13 5 3 4 -15 9 -41 9 -42 1 -129 15 -175
28 -19 6 -19 -27 1 -64 6 -12 8 -22 3 -22 -13 0 -51 86 -58 133 -4 23 -11 51
-17 62 -15 30 -49 65 -58 59 -5 -2 -26 4 -48 16 -40 20 -51 24 -51 16z m310
-236 c0 -5 -7 -7 -15 -4 -8 4 -15 8 -15 10 0 2 7 4 15 4 8 0 15 -4 15 -10z
m18 -71 c-3 -8 -7 -3 -11 10 -4 17 -3 21 5 13 5 -5 8 -16 6 -23z m57 -9 c-3
-5 -12 -10 -18 -10 -7 0 -6 4 3 10 19 12 23 12 15 0z m162 -22 c-3 -8 -6 -5
-6 6 -1 11 2 17 5 13 3 -3 4 -12 1 -19z m87 -30 c8 -13 7 -21 -1 -29 -16 -16
-43 5 -43 33 0 24 28 21 44 -4z m-121 -48 c-3 -11 -9 -20 -15 -20 -5 0 -4 9 2
20 6 11 12 20 14 20 2 0 2 -9 -1 -20z m-199 -70 c7 -24 6 -24 -8 -6 -9 11 -16
27 -16 35 0 21 16 2 24 -29z m230 21 c3 -5 -5 -8 -18 -7 -13 0 -22 4 -19 9 6
10 31 9 37 -2z m-89 -49 c-3 -3 -11 0 -18 7 -9 10 -8 11 6 5 10 -3 15 -9 12
-12z m-31 -17 c-4 -8 -14 -15 -23 -15 -14 1 -13 3 3 15 25 19 27 19 20 0z
m186 -63 c0 -19 -18 -42 -32 -42 -12 0 -9 35 4 48 17 17 28 15 28 -6z m-224
-9 c4 4 18 -6 32 -21 15 -16 34 -26 45 -24 19 4 19 3 0 -17 -11 -12 -26 -19
-34 -16 -13 5 -60 68 -67 90 -2 6 1 3 7 -5 5 -8 13 -11 17 -7z m195 -66 c-13
-13 -26 -3 -16 12 3 6 11 8 17 5 6 -4 6 -10 -1 -17z m-48 -61 c3 -8 3 -17 0
-20 -9 -9 -34 15 -27 25 8 13 21 11 27 -5z m240 -325 c23 -22 39 -42 36 -46
-4 -3 -28 15 -55 39 -27 25 -43 45 -36 46 7 0 32 -18 55 -39z m-58 -41 c3 -6
-1 -7 -9 -4 -18 7 -21 14 -7 14 6 0 13 -4 16 -10z"/>
<path d="M1402 5110 c1 -16 5 -27 10 -24 11 7 10 54 -1 54 -5 0 -9 -13 -9 -30z"/>
<path d="M1280 5050 c0 -5 5 -10 11 -10 5 0 7 5 4 10 -3 6 -8 10 -11 10 -2 0
-4 -4 -4 -10z"/>
<path d="M1349 5043 c-1 -4 -1 -11 0 -15 0 -5 -9 -8 -21 -8 -22 0 -22 0 4 -25
17 -16 33 -22 44 -18 16 6 16 7 -1 19 -10 7 -15 20 -12 28 4 9 2 18 -3 21 -6
4 -11 3 -11 -2z"/>
<path d="M1376 5034 c-9 -23 -8 -24 15 -24 15 0 19 4 15 16 -5 14 -4 15 9 4 8
-7 15 -8 15 -2 0 9 -22 22 -40 22 -4 0 -11 -7 -14 -16z"/>
<path d="M1165 5000 c-3 -5 -2 -10 4 -10 5 0 13 5 16 10 3 6 2 10 -4 10 -5 0
-13 -4 -16 -10z"/>
<path d="M1238 4995 c-8 -9 3 -45 13 -45 5 0 9 7 9 15 0 8 0 18 1 22 1 10 -16
15 -23 8z"/>
<path d="M1120 4971 c0 -12 5 -21 10 -21 6 0 10 6 10 14 0 8 -4 18 -10 21 -5
3 -10 -3 -10 -14z"/>
<path d="M1178 4983 c-10 -2 -18 -11 -18 -20 0 -10 6 -13 16 -9 9 3 20 6 25 6
5 0 9 7 9 15 0 15 -2 16 -32 8z"/>
<path d="M1080 4970 c0 -5 5 -10 10 -10 6 0 10 5 10 10 0 6 -4 10 -10 10 -5 0
-10 -4 -10 -10z"/>
<path d="M1272 4959 c2 -6 8 -10 13 -10 5 0 11 4 13 10 2 6 -4 11 -13 11 -9 0
-15 -5 -13 -11z"/>
<path d="M1117 4924 c-8 -8 1 -24 14 -24 5 0 9 7 9 15 0 15 -12 20 -23 9z"/>
<path d="M900 4916 c0 -2 7 -6 15 -10 8 -3 15 -1 15 4 0 6 -7 10 -15 10 -8 0
-15 -2 -15 -4z"/>
<path d="M2676 4690 c4 -19 11 -46 17 -60 6 -14 10 -28 9 -31 0 -3 6 -6 14 -6
16 0 19 13 3 22 -6 4 -8 13 -5 20 3 8 -3 24 -13 37 -10 13 -21 30 -24 38 -4 8
-4 -1 -1 -20z"/>
<path d="M2730 4568 c0 -23 39 -78 56 -78 11 0 14 5 10 16 -3 9 -6 22 -6 29 0
18 -28 45 -46 45 -8 0 -14 -6 -14 -12z"/>
<path d="M2794 4448 c14 -22 20 -25 31 -15 7 7 10 16 7 22 -3 5 -8 3 -10 -4
-3 -9 -10 -7 -25 6 -20 18 -20 18 -3 -9z"/>
<path d="M2840 4380 c0 -11 5 -20 10 -20 6 0 10 -7 10 -15 0 -8 9 -15 20 -15
24 0 26 18 4 48 -19 27 -44 29 -44 2z"/>
<path d="M3073 4379 c11 -7 23 -7 35 0 14 9 11 10 -18 10 -29 0 -32 -1 -17
-10z"/>
<path d="M3330 4351 c0 -5 5 -13 10 -16 6 -3 10 -2 10 4 0 5 -4 13 -10 16 -5
3 -10 2 -10 -4z"/>
<path d="M3067 4314 c6 -15 23 -19 23 -5 0 5 -7 11 -14 14 -10 4 -13 1 -9 -9z"/>
<path d="M3097 4296 c-4 -10 -1 -13 9 -9 7 3 14 9 14 14 0 14 -17 10 -23 -5z"/>
<path d="M2930 4281 c0 -5 5 -13 10 -16 6 -3 10 -2 10 4 0 5 -4 13 -10 16 -5
3 -10 2 -10 -4z"/>
<path d="M3352 4218 c0 -57 -9 -101 -22 -112 -8 -6 -16 -16 -17 -23 -2 -11 65
-68 72 -61 9 9 -11 212 -21 215 -7 2 -12 -6 -12 -19z"/>
<path d="M2975 4201 c-3 -6 -1 -19 4 -28 6 -10 11 -13 11 -6 0 7 7 10 16 6 11
-4 12 -8 4 -13 -15 -9 -4 -30 14 -30 27 0 29 66 3 67 -7 0 -19 4 -28 7 -10 4
-20 3 -24 -3z"/>
<path d="M3095 4070 c3 -5 11 -10 16 -10 6 0 7 5 4 10 -3 6 -11 10 -16 10 -6
0 -7 -4 -4 -10z"/>
<path d="M3300 4052 c0 -6 -9 -8 -20 -5 -32 9 -23 -12 13 -29 34 -16 34 -16
29 8 -4 24 -22 44 -22 26z"/>
<path d="M3090 3990 c0 -5 7 -7 15 -4 8 4 15 8 15 10 0 2 -7 4 -15 4 -8 0 -15
-4 -15 -10z"/>
<path d="M3155 3963 c2 -21 8 -39 15 -41 7 -3 10 4 8 19 -2 17 3 25 16 27 12
3 16 0 11 -8 -4 -6 1 -21 12 -32 10 -12 12 -18 6 -14 -7 4 -13 3 -13 -3 0 -17
15 -20 33 -6 18 13 17 15 -3 54 -18 36 -25 41 -54 41 -32 0 -33 -1 -31 -37z"/>
<path d="M3125 3950 c3 -5 8 -10 11 -10 2 0 4 5 4 10 0 6 -5 10 -11 10 -5 0
-7 -4 -4 -10z"/>
<path d="M3185 3909 c-4 -6 -5 -12 -2 -15 2 -3 7 2 10 11 7 17 1 20 -8 4z"/>
<path d="M3330 3871 c0 -5 5 -13 10 -16 6 -3 10 -2 10 4 0 5 -4 13 -10 16 -5
3 -10 2 -10 -4z"/>
<path d="M3310 3850 c0 -5 5 -10 11 -10 5 0 7 5 4 10 -3 6 -8 10 -11 10 -2 0
-4 -4 -4 -10z"/>
<path d="M3366 3842 c-3 -6 -1 -14 5 -17 15 -10 25 3 12 16 -7 7 -13 7 -17 1z"/>
<path d="M3335 3810 c3 -5 13 -10 21 -10 8 0 14 5 14 10 0 6 -9 10 -21 10 -11
0 -17 -4 -14 -10z"/>
<path d="M3316 3761 c-4 -7 -5 -15 -2 -18 9 -9 19 4 14 18 -4 11 -6 11 -12 0z"/>
<path d="M3385 3750 c3 -5 11 -10 16 -10 6 0 7 5 4 10 -3 6 -11 10 -16 10 -6
0 -7 -4 -4 -10z"/>
<path d="M3354 3734 c3 -9 6 -18 6 -20 0 -2 4 -4 9 -4 5 0 7 9 4 20 -3 11 -10
20 -15 20 -6 0 -7 -7 -4 -16z"/>
</g>
</svg>
